<?xml version="1.0" encoding="UTF-8" standalone="no"?>
<svg
   xmlns:dc="http://purl.org/dc/elements/1.1/"
   xmlns:cc="http://creativecommons.org/ns#"
   xmlns:rdf="http://www.w3.org/1999/02/22-rdf-syntax-ns#"
   xmlns:svg="http://www.w3.org/2000/svg"
   xmlns="http://www.w3.org/2000/svg"
   xmlns:sodipodi="http://sodipodi.sourceforge.net/DTD/sodipodi-0.dtd"
   xmlns:inkscape="http://www.inkscape.org/namespaces/inkscape"
   viewBox="0 0 20 20"
   version="1.1"
   id="svg3799"
   sodipodi:docname="logoshield.svg"
   inkscape:version="0.92.4 (unknown)">
  <metadata
     id="metadata3805">
    <rdf:RDF>
      <cc:Work
         rdf:about="">
        <dc:format>image/svg+xml</dc:format>
        <dc:type
           rdf:resource="http://purl.org/dc/dcmitype/StillImage" />
      </cc:Work>
    </rdf:RDF>
  </metadata>
  <defs
     id="defs3803" />
  <sodipodi:namedview
     pagecolor="#ffffff"
     bordercolor="#666666"
     borderopacity="1"
     objecttolerance="10"
     gridtolerance="10"
     guidetolerance="10"
     inkscape:pageopacity="0"
     inkscape:pageshadow="2"
     inkscape:window-width="1600"
     inkscape:window-height="836"
     id="namedview3801"
     showgrid="false"
     inkscape:zoom="22.627417"
     inkscape:cx="15.530507"
     inkscape:cy="7.7992097"
     inkscape:window-x="0"
     inkscape:window-y="27"
     inkscape:window-maximized="1"
     inkscape:current-layer="svg3799" />
  <path
     style="fill:#000000;fill-opacity:1;stroke-width:0.03100082"
     d="M 7.271274,18.505946 C 5.770408,17.668084 4.4475671,16.92091 4.3316265,16.845559 3.9844425,16.619918 3.5157315,16.231003 3.1703125,15.881951 2.5926005,15.298162 2.1603215,14.689718 1.7919478,13.941868 1.5127385,13.375033 1.3691687,12.988971 1.2325857,12.437732 1.0089977,11.535347 1.0212323,11.824127 1.0100656,7.1856322 L 1,3.0046783 h 0.2416387 c 1.0061728,0 2.3454568,-0.1802546 3.4928698,-0.4701062 1.776801,-0.4488436 3.6352766,-1.3207664 5.051676,-2.37004535 L 10.008275,-3.0016252e-7 10.221016,0.15623325 c 1.982743,1.45609255 4.398162,2.41485035 6.856698,2.72164695 0.579689,0.072337 1.286889,0.1260381 1.665811,0.1264911 L 19,3.0046713 18.98945,7.2787078 c -0.01034,4.1963272 -0.01178,4.2800372 -0.07573,4.6040922 -0.254283,1.288449 -0.716214,2.331238 -1.474958,3.32973 -0.389151,0.51211 -1.052014,1.144712 -1.615471,1.541732 -0.18217,0.128359 -5.329493,3.026603 -5.76119,3.243882 -0.05203,0.02619 -0.4987044,-0.21264 -2.7907947,-1.492205 z"
     id="path3978"
     inkscape:connector-curvature="0" />
  <path
     style="fill:#ffffff;fill-opacity:1;stroke-width:0.02803049"
     d="M 8.0739376,15.974758 C 7.870475,15.904587 7.7066033,15.643324 7.6374261,15.27883 7.6038421,15.101862 7.6051681,14.49434 7.6397461,14.228406 7.6922431,13.824432 7.94356,13.328795 8.3142043,12.898304 8.5743337,12.596164 8.576187,12.598299 8.1141327,12.66857 7.4824603,12.76464 7.365817,12.772605 7.0647239,12.74021 6.9045711,12.72298 6.7065083,12.68921 6.6245847,12.66514 6.3748237,12.59181 6.1096194,12.436269 5.9691056,12.280701 5.8974506,12.201361 5.8032511,12.096832 5.7597783,12.048397 5.7163099,11.999967 5.5630569,11.88034 5.4192226,11.782561 4.6354241,11.249755 4.1388315,10.441088 4.0209994,9.505661 3.869321,8.3015247 4.5528666,6.8864862 5.6331818,6.1682067 6.0710137,5.8771006 6.4069346,5.7619087 6.8180158,5.7619087 H 7.0785135 V 5.5821021 c 0,-0.2342088 0.070261,-0.3957127 0.2588153,-0.5949332 C 7.5262156,4.7875987 7.6842981,4.7090628 8.0707393,4.6228101 8.3383324,4.5630875 8.4236861,4.528945 8.6741543,4.381471 8.8439031,4.2815226 9.0842658,4.1699878 9.2489941,4.1147308 9.494576,4.0323522 9.580417,4.0177802 9.896633,4.0047914 c 0.637025,-0.026168 1.01732,0.05172 1.519236,0.3111586 0.435721,0.2252191 0.77754,0.5607527 0.894365,0.8779307 0.02707,0.073544 0.05889,0.1447994 0.07065,0.1583414 0.01201,0.013808 0.123902,-0.00401 0.254742,-0.040568 0.182638,-0.051032 0.306453,-0.065512 0.569834,-0.066657 0.37867,-0.00168 0.49905,0.028224 0.85525,0.2121912 0.588977,0.304197 1.247335,1.0066504 1.597253,1.7042246 0.242409,0.4832506 0.340945,0.8721132 0.342027,1.3497847 0.0018,0.7404744 -0.234704,1.3627074 -0.814652,2.1444204 l -0.06548,0.08823 0.187295,0.219341 c 0.104594,0.122499 0.237879,0.321362 0.30187,0.450404 0.105118,0.211977 0.115676,0.253824 0.127871,0.506778 0.01538,0.319579 -0.0251,0.498075 -0.180167,0.794035 -0.253516,0.483874 -0.817988,0.965076 -1.344595,1.146251 -0.09097,0.03131 -0.291904,0.07964 -0.446472,0.107327 -0.237312,0.0426 -0.301441,0.06597 -0.412182,0.150447 -0.214933,0.163939 -0.371483,0.203418 -0.806973,0.203487 -0.429643,5.5e-5 -0.612566,-0.038 -0.953392,-0.198571 -0.405559,-0.191019 -0.702114,-0.462025 -1.062995,-0.971392 -0.240879,-0.339996 -0.29856,-0.367257 -0.7438177,-0.351508 -0.2647734,0.0092 -0.3668238,0.02471 -0.4694321,0.07076 -0.2961498,0.132814 -0.4825355,0.397393 -0.6239467,0.88569 -0.1113045,0.384339 -0.1277947,0.545001 -0.1280227,1.247354 -2.393e-4,0.711091 -0.00996,0.765313 -0.1627406,0.907267 -0.099823,0.09277 -0.1913957,0.110383 -0.3281881,0.06317 z m 5.7203614,-2.540383 c 0.204719,-0.0438 0.521398,-0.196335 0.712067,-0.342944 0.200217,-0.153947 0.413322,-0.428241 0.563796,-0.725689 l 0.110804,-0.219047 -0.01745,-0.355369 c -0.01616,-0.327191 -0.06497,-0.570272 -0.168677,-0.839483 -0.02453,-0.06357 -0.02516,-0.06337 -0.173792,0.0474 -0.335866,0.250401 -0.860389,0.462697 -1.100645,0.445478 -0.215711,-0.01545 -0.169856,-0.08719 0.242185,-0.378951 0.840268,-0.594944 1.293176,-1.16085 1.475311,-1.843405 0.04906,-0.18391 0.06014,-0.3071749 0.06159,-0.6864902 0.0019,-0.4542726 1.63e-4,-0.4667255 -0.09004,-0.7145106 C 15.107232,6.9911879 14.448422,6.216429 13.76627,5.8890723 13.454629,5.739518 13.316403,5.7058678 13.013726,5.7058678 c -0.456068,0 -0.705013,0.1286375 -1.222563,0.6317214 l -0.264817,0.2574116 0.08756,0.136849 c 0.144913,0.2264978 0.337518,0.6535543 0.415558,0.9214088 0.104591,0.3590095 0.105996,0.7511962 0.0042,1.0627607 l -0.07285,0.2221589 0.127434,0.1693988 c 0.29361,0.390295 0.377645,0.730525 0.276384,1.119004 -0.02315,0.08875 -0.04206,0.173803 -0.04206,0.189004 0,0.04144 0.08787,-0.01257 0.279622,-0.172049 0.205622,-0.170994 0.397241,-0.438206 0.604272,-0.842636 0.150664,-0.294328 0.217454,-0.362034 0.256593,-0.260114 0.02328,0.06054 -0.06503,0.825869 -0.119279,1.034272 -0.146444,0.562484 -0.65642,1.298933 -1.106553,1.597956 -0.258542,0.171752 -0.880057,0.4655 -1.19052,0.562681 -0.138802,0.04347 -0.258015,0.083 -0.264915,0.08787 -0.0145,0.01022 0.05061,0.126667 0.188251,0.336742 0.08077,0.123226 0.129588,0.163246 0.29696,0.243334 0.359042,0.171796 1.264441,0.409987 1.747256,0.459664 0.236279,0.02433 0.593672,0.01109 0.780465,-0.02892 z M 8.7367202,11.421952 C 8.7543374,10.93771 8.8673649,10.160325 9.0409171,9.329747 9.1660313,8.7309774 9.2839725,8.4098019 9.3787358,8.4098019 c 0.0351,0 0.041312,0.1053764 0.042103,0.7145091 8.25e-4,0.652938 0.006,0.728998 0.059941,0.882629 0.032453,0.09247 0.121946,0.344648 0.1988766,0.5604 0.076931,0.215754 0.156196,0.465358 0.1761464,0.554677 0.019952,0.08934 0.043729,0.166994 0.052832,0.172619 0.00906,0.0061 0.098455,-0.03924 0.1985482,-0.09977 0.209996,-0.126928 0.510725,-0.228906 1.144967,-0.388243 0.247674,-0.0622 0.482032,-0.127569 0.520794,-0.145219 0.100963,-0.046 0.203326,-0.20797 0.253478,-0.40117 0.09388,-0.36157 0.03858,-0.61189 -0.195278,-0.883936 C 11.577173,9.080837 11.579484,9.090154 11.680782,8.7692134 11.794652,8.4084826 11.798878,8.1606585 11.696212,7.8663718 11.495734,7.2917483 10.957785,6.6906838 10.372353,6.3871727 9.5667704,5.9695297 8.8834249,6.1421749 8.269042,6.9185683 8.0710761,7.1687376 7.9625456,7.3987355 7.8479807,7.8108834 7.7118359,8.3006673 7.6624502,8.436942 7.5751931,8.5636016 7.1919785,9.119867 7.1768264,9.157533 7.132884,9.663101 c -0.08391,0.965376 0.1819738,1.581604 0.8759617,2.030203 0.2619633,0.169338 0.4275108,0.233239 0.5838486,0.225356 l 0.1261841,-0.006 z M 6.3445833,11.68114 C 6.3393033,11.66962 6.3001353,11.59375 6.2574313,11.512587 6.133825,11.277714 6.0876962,11.053829 6.1100795,10.797432 c 0.032512,-0.372458 0.1635266,-0.776481 0.2517913,-0.776481 0.028104,0 0.1046491,0.125372 0.2148811,0.35193 0.094176,0.193559 0.1754818,0.347673 0.1806778,0.342486 0.00521,-0.0056 -0.00408,-0.06583 -0.02058,-0.134773 -0.016512,-0.06898 -0.031576,-0.339685 -0.033472,-0.601668 -0.00529,-0.721561 0.085682,-0.9803214 0.5137308,-1.4623092 L 7.4612774,8.2416814 7.5109798,7.9895012 C 7.6099341,7.4874405 7.7196902,7.2069907 7.9790737,6.7934219 8.0543825,6.6733467 8.1159985,6.5628878 8.1159985,6.5479583 c 0,-0.08382 -0.6474342,-0.3555822 -0.9484752,-0.3981231 -0.4066914,-0.057472 -0.8401585,0.085716 -1.294006,0.4274437 -0.6239496,0.4698083 -1.0729586,1.2426003 -1.20741,2.0780774 -0.055056,0.3421219 -0.022216,0.9273887 0.0694,1.2367147 0.1908065,0.644266 0.499798,1.099153 1.0100452,1.486961 0.2670656,0.202986 0.6390693,0.390589 0.5990363,0.302108 z M 11.572093,6.2032248 c 0.08657,-0.1271411 0.247533,-0.3287994 0.357736,-0.4481308 l 0.20036,-0.2169656 -0.09109,-0.1591056 C 11.865789,5.076342 11.538419,4.80977 11.145011,4.6509846 10.767652,4.4986762 10.571333,4.4632328 10.092889,4.4610375 9.6710928,4.4590875 9.6294503,4.4638175 9.397311,4.5398508 8.9824602,4.6757239 8.7416912,4.8556419 8.3939507,5.2896265 8.2872005,5.4228517 8.1823337,5.5385752 8.1609136,5.5467874 c -0.02142,0.0082 -0.067207,-0.015135 -0.1017592,-0.051878 -0.063622,-0.067672 -0.064507,-0.093391 -0.010605,-0.3080101 0.019216,-0.076509 0.018435,-0.077011 -0.088809,-0.05691 -0.3187442,0.059752 -0.5297885,0.2697024 -0.5846598,0.5816293 -0.016994,0.096608 -0.011857,0.1070876 0.073905,0.1508426 0.050693,0.025857 0.2597689,0.153639 0.4646157,0.2839474 L 8.2860498,6.3833334 8.5658255,6.1954303 C 8.8817162,5.9832704 9.2603349,5.8092946 9.5041936,5.7642487 10.079578,5.6579621 10.640111,5.8185718 11.14442,6.2342201 c 0.131097,0.1080448 0.245538,0.1972831 0.254326,0.1983069 0.0085,0.00103 0.08682,-0.1021625 0.173342,-0.2293036 z"
     id="path4059"
     inkscape:connector-curvature="0" />
</svg>
